{"title":"Shadow.People.2012.576p.BDRiP.AC3-5.1.x264-AXED","uid":8257206,"size":2184182056,"categoryP":"video","categoryS":"movies","magnet":"?xt=urn:btih:02ac622fe2f5d962284e16f710ebd4dee3acc69e&amp;dn=Shadow.People.2012.576p.BDRiP.AC3-5.1.x264-AXED&amp;tr=udp%3A%2F%2Ftracker.openbittorrent.com%3A80&amp;tr=udp%3A%2F%2Fopen.demonii.com%3A1337&amp;tr=udp%3A%2F%2Ftracker.coppersurfer.tk%3A6969&amp;tr=udp%3A%2F%2Fexodus.desync.com%3A6969","seeders":1,"leechers":0,"uploader":"Acesn8s","files":-1,"time":1363290189,"description":"Complete name                    : Shadow.People.2012.576p.BDRiP.AC3-5.1.x264-AXED.mkv\nFormat                           : Matroska\nFile size                        : 2.00 GiB\nDuration                         : 1h 28mn\nOverall bit rate                 : 3 218 Kbps\nEncoded date                     : UTC 2013-03-14 04:45:21\nWriting application              : mkvmerge v4.9.1 ('Ich will') built on Jul 11 2011 23:53:15\nWriting library                  : libebml v1.2.1 + libmatroska v1.1.1\n\nVideo\nID                               : 1\nFormat                           : AVC\nFormat/Info                      : Advanced Video Codec\nFormat profile                   : &lt;a class=&quot;__cf_email__&quot; href=&quot;/cdn-cgi/l/email-protection&quot; data-cfemail=&quot;5c14353b341c1068726d&quot;&gt;[email&amp;#160;protected]&lt;/a&gt;&lt;script cf-hash='f9e31' type=&quot;text/javascript&quot;&gt;\n/* &lt;![CDATA[ */!function(){try{var t=&quot;currentScript&quot;in document?document.currentScript:function(){for(var t=document.getElementsByTagName(&quot;script&quot;),e=t.length;e--;)if(t[e].getAttribute(&quot;cf-hash&quot;))return t[e]}();if(t&amp;&amp;t.previousSibling){var e,r,n,i,c=t.previousSibling,a=c.getAttribute(&quot;data-cfemail&quot;);if(a){for(e=&quot;&quot;,r=parseInt(a.substr(0,2),16),n=2;a.length-n;n+=2)i=parseInt(a.substr(n,2),16)^r,e+=String.fromCharCode(i);e=document.createTextNode(e),c.parentNode.replaceChild(e,c)}}}catch(u){}}();/* ]]&gt; */&lt;/script&gt;\nFormat settings, CABAC           : Yes\nFormat settings, ReFrames        : 3 frames\nFormat settings, GOP             : M=4, N=24\nCodec ID                         : V_MPEG4/ISO/AVC\nDuration                         : 1h 28mn\nBit rate mode                    : Variable\nBit rate                         : 2 575 Kbps\nMaximum bit rate                 : 40.0 Mbps\nWidth                            : 1 024 pixels\nHeight                           : 432 pixels\nDisplay aspect ratio             : 2.35:1\nFrame rate                       : 23.976 fps\nColor space                      : YUV\nChroma subsampling               : 4:2:0\nBit depth                        : 8 bits\nScan type                        : Progressive\nBits/(Pixel*Frame)               : 0.243\nStream size                      : 1.56 GiB (78%)\nWriting library                  : x264 core 116 r2074 2641b9e\n\nAudio\nID                               : 2\nFormat                           : AC-3\nFormat/Info                      : Audio Coding 3\nMode extension                   : CM (complete main)\nCodec ID                         : A_AC3\nDuration                         : 1h 28mn\nBit rate mode                    : Constant\nBit rate                         : 640 Kbps\nChannel(s)                       : 6 channels\nChannel positions                : Front: L C R, Side: L R, LFE\nSampling rate                    : 48.0 KHz\nBit depth                        : 16 bits\nCompression mode                 : Lossy\nStream size                      : 407 MiB (20%)\n\nSOURCE:\nRA RETAIL BLU RAY DISC\n\nCast: Dallas Roberts, Alison Eastwood, Anne Dudek \n\nPlot: A radio talk show host unravels a conspiracy about encounters with \nmysterious beings known as The Shadow People and their role in the unexplained \ndeaths of several hundred victims in the 1980s. \n\nScreens: \n &lt;a href=&quot;\nhttp://imageshack.us/a/img801/7818/18879632.png&quot; rel=&quot;nofollow&quot; target=&quot;_NEW&quot;&gt;\nhttp://imageshack.us/a/img801/7818/18879632.png&lt;/a&gt;\n &lt;a href=&quot;\nhttp://imageshack.us/a/img6/4995/38939301.png&quot; rel=&quot;nofollow&quot; target=&quot;_NEW&quot;&gt;\nhttp://imageshack.us/a/img6/4995/38939301.png&lt;/a&gt;\n &lt;a href=&quot;\nhttp://imageshack.us/a/img507/8489/97099606.png&quot; rel=&quot;nofollow&quot; target=&quot;_NEW&quot;&gt;\nhttp://imageshack.us/a/img507/8489/97099606.png&lt;/a&gt;\n &lt;a href=&quot;\nhttp://imageshack.us/a/img163/9619/24987660.png&quot; rel=&quot;nofollow&quot; target=&quot;_NEW&quot;&gt;\nhttp://imageshack.us/a/img163/9619/24987660.png&lt;/a&gt;\n &lt;a href=&quot;\nhttp://imageshack.us/a/img20/9691/63862675.png&quot; rel=&quot;nofollow&quot; target=&quot;_NEW&quot;&gt;\nhttp://imageshack.us/a/img20/9691/63862675.png&lt;/a&gt;","torrent":{"xt":"urn:btih:02ac622fe2f5d962284e16f710ebd4dee3acc69e","amp;dn":"Shadow.People.2012.576p.BDRiP.AC3-5.1.x264-AXED","amp;tr":["udp%3A%2F%2Ftracker.openbittorrent.com%3A80","udp%3A%2F%2Fopen.demonii.com%3A1337","udp%3A%2F%2Ftracker.coppersurfer.tk%3A6969","udp%3A%2F%2Fexodus.desync.com%3A6969"],"infoHash":"02ac622fe2f5d962284e16f710ebd4dee3acc69e","infoHashBuffer":{"type":"Buffer","data":[2,172,98,47,226,245,217,98,40,78,22,247,16,235,212,222,227,172,198,158]},"announce":[],"urlList":[]}}